<?xml version="1.0" encoding="UTF-8" standalone="no"?>
<!-- Generated by graphviz version 14.1.5 (20260411.2331)
 -->
<!-- Title: Deming Chain Reaction Pages: 1 -->
<svg width="1029pt" height="128pt"
 viewBox="0.00 0.00 1029.00 128.00" xmlns="http://www.w3.org/2000/svg" xmlns:xlink="http://www.w3.org/1999/xlink">
<g id="graph0" class="graph" transform="scale(1 1) rotate(0) translate(28.8 99.45)">
<title>Deming Chain Reaction</title>
<polygon fill="white" stroke="none" points="-28.8,28.8 -28.8,-99.45 1000.15,-99.45 1000.15,28.8 -28.8,28.8"/>
<!-- Improve -->
<g id="node1" class="node">
<title>Improve</title>
<polygon fill="lightblue" stroke="black" points="176.67,-61.28 0,-61.28 0,-9.38 176.67,-9.38 176.67,-61.28"/>
<text xml:space="preserve" text-anchor="middle" x="88.34" y="-36.98" font-family="Helvetica,sans-Serif" font-size="18.00">Improve processes</text>
<text xml:space="preserve" text-anchor="middle" x="88.34" y="-18.23" font-family="Helvetica,sans-Serif" font-size="18.00">and product</text>
</g>
<!-- Costs -->
<g id="node2" class="node">
<title>Costs</title>
<polygon fill="lightblue" stroke="black" points="369.34,-53.33 219.67,-53.33 219.67,-17.33 369.34,-17.33 369.34,-53.33"/>
<text xml:space="preserve" text-anchor="middle" x="294.5" y="-27.6" font-family="Helvetica,sans-Serif" font-size="18.00">Costs decrease</text>
</g>
<!-- Improve&#45;&gt;Costs -->
<g id="edge1" class="edge">
<title>Improve&#45;&gt;Costs</title>
<path fill="none" stroke="black" d="M177.11,-35.33C187.31,-35.33 197.72,-35.33 207.9,-35.33"/>
<polygon fill="black" stroke="black" points="207.76,-38.83 217.76,-35.33 207.76,-31.83 207.76,-38.83"/>
</g>
<!-- Capture -->
<g id="node3" class="node">
<title>Capture</title>
<polygon fill="lightblue" stroke="black" points="591.26,-70.65 412.34,-70.65 412.34,0 591.26,0 591.26,-70.65"/>
<text xml:space="preserve" text-anchor="middle" x="501.8" y="-46.35" font-family="Helvetica,sans-Serif" font-size="18.00">Capture the market</text>
<text xml:space="preserve" text-anchor="middle" x="501.8" y="-27.6" font-family="Helvetica,sans-Serif" font-size="18.00">with better quality</text>
<text xml:space="preserve" text-anchor="middle" x="501.8" y="-8.85" font-family="Helvetica,sans-Serif" font-size="18.00">and lower price</text>
</g>
<!-- Costs&#45;&gt;Capture -->
<g id="edge2" class="edge">
<title>Costs&#45;&gt;Capture</title>
<path fill="none" stroke="black" d="M369.62,-35.33C379.74,-35.33 390.27,-35.33 400.75,-35.33"/>
<polygon fill="black" stroke="black" points="400.58,-38.83 410.58,-35.33 400.58,-31.83 400.58,-38.83"/>
</g>
<!-- Stay -->
<g id="node4" class="node">
<title>Stay</title>
<polygon fill="lightblue" stroke="black" points="789.93,-53.33 634.26,-53.33 634.26,-17.33 789.93,-17.33 789.93,-53.33"/>
<text xml:space="preserve" text-anchor="middle" x="712.1" y="-27.6" font-family="Helvetica,sans-Serif" font-size="18.00">Stay in business</text>
</g>
<!-- Capture&#45;&gt;Stay -->
<g id="edge3" class="edge">
<title>Capture&#45;&gt;Stay</title>
<path fill="none" stroke="black" d="M591.74,-35.33C601.94,-35.33 612.35,-35.33 622.54,-35.33"/>
<polygon fill="black" stroke="black" points="622.44,-38.83 632.44,-35.33 622.44,-31.83 622.44,-38.83"/>
</g>
<!-- Jobs -->
<g id="node5" class="node">
<title>Jobs</title>
<polygon fill="lightblue" stroke="black" points="971.35,-61.28 832.93,-61.28 832.93,-9.38 971.35,-9.38 971.35,-61.28"/>
<text xml:space="preserve" text-anchor="middle" x="902.14" y="-36.98" font-family="Helvetica,sans-Serif" font-size="18.00">Provide jobs</text>
<text xml:space="preserve" text-anchor="middle" x="902.14" y="-18.23" font-family="Helvetica,sans-Serif" font-size="18.00">and more jobs</text>
</g>
<!-- Stay&#45;&gt;Jobs -->
<g id="edge4" class="edge">
<title>Stay&#45;&gt;Jobs</title>
<path fill="none" stroke="black" d="M790.39,-35.33C800.55,-35.33 810.98,-35.33 821.18,-35.33"/>
<polygon fill="black" stroke="black" points="821.06,-38.83 831.06,-35.33 821.06,-31.83 821.06,-38.83"/>
</g>
</g>
</svg>
