<?xml version="1.0" encoding="UTF-8" standalone="no"?>
<!-- Generated by graphviz version 14.1.5 (20260411.2331)
 -->
<!-- Title: Organisation as a System Pages: 1 -->
<svg width="1385pt" height="542pt"
 viewBox="0.00 0.00 1385.00 542.00" xmlns="http://www.w3.org/2000/svg" xmlns:xlink="http://www.w3.org/1999/xlink">
<g id="graph0" class="graph" transform="scale(1 1) rotate(0) translate(28.8 513.7)">
<title>Organisation as a System</title>
<polygon fill="white" stroke="none" points="-28.8,28.8 -28.8,-513.7 1355.9,-513.7 1355.9,28.8 -28.8,28.8"/>
<g id="clust1" class="cluster">
<title>cluster_suppliers</title>
<path fill="white" stroke="#999999" d="M243.92,-75.95C243.92,-75.95 529.17,-75.95 529.17,-75.95 535.17,-75.95 541.17,-81.95 541.17,-87.95 541.17,-87.95 541.17,-346.95 541.17,-346.95 541.17,-352.95 535.17,-358.95 529.17,-358.95 529.17,-358.95 243.92,-358.95 243.92,-358.95 237.92,-358.95 231.92,-352.95 231.92,-346.95 231.92,-346.95 231.92,-87.95 231.92,-87.95 231.92,-81.95 237.92,-75.95 243.92,-75.95"/>
<text xml:space="preserve" text-anchor="middle" x="386.55" y="-337.85" font-family="Helvetica,sans-Serif" font-size="18.00">Suppliers of materials and equipment</text>
</g>
<!-- A -->
<g id="node1" class="node">
<title>A</title>
<polygon fill="lightblue" stroke="black" points="413.04,-255.95 359.04,-255.95 359.04,-219.95 413.04,-219.95 413.04,-255.95"/>
<text xml:space="preserve" text-anchor="middle" x="386.04" y="-230.22" font-family="Helvetica,sans-Serif" font-size="18.00">A</text>
</g>
<!-- Receipt -->
<g id="node5" class="node">
<title>Receipt</title>
<polygon fill="lightblue" stroke="black" points="746.09,-263.9 591.17,-263.9 591.17,-212 746.09,-212 746.09,-263.9"/>
<text xml:space="preserve" text-anchor="middle" x="668.63" y="-239.6" font-family="Helvetica,sans-Serif" font-size="18.00">Receipt and test</text>
<text xml:space="preserve" text-anchor="middle" x="668.63" y="-220.85" font-family="Helvetica,sans-Serif" font-size="18.00">of materials</text>
</g>
<!-- A&#45;&gt;Receipt -->
<g id="edge1" class="edge">
<title>A&#45;&gt;Receipt</title>
<path fill="none" stroke="black" d="M413.44,-237.95C451.11,-237.95 522.06,-237.95 579.46,-237.95"/>
<polygon fill="black" stroke="black" points="579.23,-241.45 589.23,-237.95 579.23,-234.45 579.23,-241.45"/>
</g>
<!-- B -->
<g id="node2" class="node">
<title>B</title>
<polygon fill="lightblue" stroke="black" points="413.04,-323.95 359.04,-323.95 359.04,-287.95 413.04,-287.95 413.04,-323.95"/>
<text xml:space="preserve" text-anchor="middle" x="386.04" y="-298.22" font-family="Helvetica,sans-Serif" font-size="18.00">B</text>
</g>
<!-- B&#45;&gt;Receipt -->
<g id="edge2" class="edge">
<title>B&#45;&gt;Receipt</title>
<path fill="none" stroke="black" d="M413.31,-300.54C444.05,-294.11 496.45,-282.89 541.17,-271.95 553.76,-268.87 567.02,-265.47 580.03,-262.06"/>
<polygon fill="black" stroke="black" points="580.63,-265.52 589.4,-259.58 578.84,-258.75 580.63,-265.52"/>
</g>
<!-- C -->
<g id="node3" class="node">
<title>C</title>
<polygon fill="lightblue" stroke="black" points="413.04,-119.95 359.04,-119.95 359.04,-83.95 413.04,-83.95 413.04,-119.95"/>
<text xml:space="preserve" text-anchor="middle" x="386.04" y="-94.23" font-family="Helvetica,sans-Serif" font-size="18.00">C</text>
</g>
<!-- C&#45;&gt;Receipt -->
<g id="edge3" class="edge">
<title>C&#45;&gt;Receipt</title>
<path fill="none" stroke="black" d="M413.32,-104.05C444.99,-107.4 499.18,-115.78 541.17,-135.95 560.09,-145.04 599.74,-178.03 629.63,-204.06"/>
<polygon fill="black" stroke="black" points="627.2,-206.58 637.03,-210.54 631.81,-201.32 627.2,-206.58"/>
</g>
<!-- D -->
<g id="node4" class="node">
<title>D</title>
<polygon fill="lightblue" stroke="black" points="413.04,-187.95 359.04,-187.95 359.04,-151.95 413.04,-151.95 413.04,-187.95"/>
<text xml:space="preserve" text-anchor="middle" x="386.04" y="-162.22" font-family="Helvetica,sans-Serif" font-size="18.00">D</text>
</g>
<!-- D&#45;&gt;Receipt -->
<g id="edge4" class="edge">
<title>D&#45;&gt;Receipt</title>
<path fill="none" stroke="black" d="M413.31,-175.36C444.05,-181.79 496.45,-193.01 541.17,-203.95 553.76,-207.03 567.02,-210.43 580.03,-213.84"/>
<polygon fill="black" stroke="black" points="578.84,-217.15 589.4,-216.32 580.63,-210.38 578.84,-217.15"/>
</g>
<!-- Production -->
<g id="node6" class="node">
<title>Production</title>
<polygon fill="lightblue" stroke="black" points="996.01,-336.9 796.09,-336.9 796.09,-285 996.01,-285 996.01,-336.9"/>
<text xml:space="preserve" text-anchor="middle" x="896.05" y="-312.6" font-family="Helvetica,sans-Serif" font-size="18.00">Production, assembly,</text>
<text xml:space="preserve" text-anchor="middle" x="896.05" y="-293.85" font-family="Helvetica,sans-Serif" font-size="18.00">inspection</text>
</g>
<!-- Receipt&#45;&gt;Production -->
<g id="edge5" class="edge">
<title>Receipt&#45;&gt;Production</title>
<path fill="none" stroke="black" d="M746.58,-262.87C764.59,-268.7 783.97,-274.98 802.59,-281.01"/>
<polygon fill="black" stroke="black" points="801.42,-284.31 812.01,-284.06 803.57,-277.65 801.42,-284.31"/>
</g>
<!-- Distribution -->
<g id="node7" class="node">
<title>Distribution</title>
<polygon fill="lightblue" stroke="black" points="1160.43,-328.95 1046.01,-328.95 1046.01,-292.95 1160.43,-292.95 1160.43,-328.95"/>
<text xml:space="preserve" text-anchor="middle" x="1103.22" y="-303.22" font-family="Helvetica,sans-Serif" font-size="18.00">Distribution</text>
</g>
<!-- Production&#45;&gt;Distribution -->
<g id="edge6" class="edge">
<title>Production&#45;&gt;Distribution</title>
<path fill="none" stroke="black" d="M996.33,-310.95C1009.2,-310.95 1022.13,-310.95 1034.33,-310.95"/>
<polygon fill="black" stroke="black" points="1034.25,-314.45 1044.25,-310.95 1034.25,-307.45 1034.25,-314.45"/>
</g>
<!-- Consumers -->
<g id="node8" class="node">
<title>Consumers</title>
<polygon fill="lightblue" stroke="black" points="1327.1,-328.95 1210.43,-328.95 1210.43,-292.95 1327.1,-292.95 1327.1,-328.95"/>
<text xml:space="preserve" text-anchor="middle" x="1268.76" y="-303.22" font-family="Helvetica,sans-Serif" font-size="18.00">Consumers</text>
</g>
<!-- Distribution&#45;&gt;Consumers -->
<g id="edge7" class="edge">
<title>Distribution&#45;&gt;Consumers</title>
<path fill="none" stroke="black" d="M1160.5,-310.95C1172.74,-310.95 1185.83,-310.95 1198.5,-310.95"/>
<polygon fill="black" stroke="black" points="1198.47,-314.45 1208.47,-310.95 1198.47,-307.45 1198.47,-314.45"/>
</g>
<!-- Design -->
<g id="node9" class="node">
<title>Design</title>
<polygon fill="lightblue" stroke="black" points="443.63,-51.9 328.46,-51.9 328.46,0 443.63,0 443.63,-51.9"/>
<text xml:space="preserve" text-anchor="middle" x="386.04" y="-27.6" font-family="Helvetica,sans-Serif" font-size="18.00">Design and</text>
<text xml:space="preserve" text-anchor="middle" x="386.04" y="-8.85" font-family="Helvetica,sans-Serif" font-size="18.00">redesign</text>
</g>
<!-- Design&#45;&gt;Receipt -->
<g id="edge9" class="edge">
<title>Design&#45;&gt;Receipt</title>
<path fill="none" stroke="black" d="M443.95,-30.05C475.57,-34.92 513.91,-45.43 541.17,-67.95 580.09,-100.11 560.62,-129.75 591.17,-169.95 600.51,-182.24 612.31,-194.01 623.83,-204.21"/>
<polygon fill="black" stroke="black" points="621.52,-206.84 631.39,-210.7 626.08,-201.53 621.52,-206.84"/>
</g>
<!-- Design&#45;&gt;Production -->
<g id="edge10" class="edge">
<title>Design&#45;&gt;Production</title>
<path fill="none" stroke="black" d="M444.04,-37.28C473.71,-44.22 510.17,-54.4 541.17,-67.95 666.78,-122.87 794.6,-224.33 856.59,-277.09"/>
<polygon fill="black" stroke="black" points="854.23,-279.68 864.1,-283.53 858.78,-274.36 854.23,-279.68"/>
</g>
<!-- Design&#45;&gt;Distribution -->
<g id="edge14" class="edge">
<title>Design&#45;&gt;Distribution</title>
<path fill="none" stroke="black" d="M443.91,-28.28C516.27,-32.8 644.12,-46.08 746.09,-84.95 877.94,-135.21 1013.07,-237.85 1071.84,-285.54"/>
<polygon fill="black" stroke="black" points="1069.48,-288.13 1079.44,-291.75 1073.91,-282.71 1069.48,-288.13"/>
</g>
<!-- ConsumerResearch -->
<g id="node10" class="node">
<title>ConsumerResearch</title>
<polygon fill="lightblue" stroke="black" points="181.92,-222.95 0,-222.95 0,-186.95 181.92,-186.95 181.92,-222.95"/>
<text xml:space="preserve" text-anchor="middle" x="90.96" y="-197.22" font-family="Helvetica,sans-Serif" font-size="18.00">Consumer research</text>
</g>
<!-- ConsumerResearch&#45;&gt;Production -->
<g id="edge15" class="edge">
<title>ConsumerResearch&#45;&gt;Production</title>
<path fill="none" stroke="black" d="M101.35,-223.4C120.39,-258.47 167.26,-333.85 231.92,-362.95 426.78,-450.66 686.42,-384.4 815.38,-340.93"/>
<polygon fill="black" stroke="black" points="816.17,-344.36 824.5,-337.81 813.91,-337.73 816.17,-344.36"/>
</g>
<!-- ConsumerResearch&#45;&gt;Design -->
<g id="edge11" class="edge">
<title>ConsumerResearch&#45;&gt;Design</title>
<path fill="none" stroke="black" d="M105.33,-186.89C128.04,-157.49 177.07,-99.44 231.92,-67.95 257.87,-53.05 289.34,-43.24 316.99,-36.87"/>
<polygon fill="black" stroke="black" points="317.67,-40.31 326.69,-34.76 316.18,-33.47 317.67,-40.31"/>
</g>
<!-- Tests -->
<g id="node11" class="node">
<title>Tests</title>
<polygon fill="lightblue" stroke="black" points="502.5,-484.9 269.58,-484.9 269.58,-433 502.5,-433 502.5,-484.9"/>
<text xml:space="preserve" text-anchor="middle" x="386.04" y="-460.6" font-family="Helvetica,sans-Serif" font-size="18.00">Tests of processes,</text>
<text xml:space="preserve" text-anchor="middle" x="386.04" y="-441.85" font-family="Helvetica,sans-Serif" font-size="18.00">machines, methods, costs</text>
</g>
<!-- Tests&#45;&gt;Receipt -->
<g id="edge12" class="edge">
<title>Tests&#45;&gt;Receipt</title>
<path fill="none" stroke="black" d="M438.45,-432.62C469.48,-415.7 509.09,-392.2 541.17,-366.95 577.31,-338.51 613.54,-300.33 637.9,-272.89"/>
<polygon fill="black" stroke="black" points="640.4,-275.35 644.37,-265.53 635.14,-270.73 640.4,-275.35"/>
</g>
<!-- Tests&#45;&gt;Production -->
<g id="edge8" class="edge">
<title>Tests&#45;&gt;Production</title>
<path fill="none" stroke="black" d="M502.62,-455.79C574.61,-450.7 668.05,-438.34 746.09,-408.95 786.35,-393.79 826.79,-366.21 855.36,-344.17"/>
<polygon fill="black" stroke="black" points="857.3,-347.09 863.01,-338.16 852.98,-341.58 857.3,-347.09"/>
</g>
<!-- Tests&#45;&gt;Distribution -->
<g id="edge13" class="edge">
<title>Tests&#45;&gt;Distribution</title>
<path fill="none" stroke="black" d="M502.98,-467.55C573.88,-470.21 666.02,-469.02 746.09,-452.95 863.79,-429.33 992.4,-368.51 1058.14,-334.63"/>
<polygon fill="black" stroke="black" points="1059.53,-337.85 1066.79,-330.13 1056.31,-331.64 1059.53,-337.85"/>
</g>
</g>
</svg>
